<?xml version="1.0" encoding="UTF-8"?>
<svg xmlns="http://www.w3.org/2000/svg" xmlns:xlink="http://www.w3.org/1999/xlink" width="19px" height="24px" viewBox="0 0 19 24" version="1.1">
<defs>
<clipPath id="clip1">
  <path d="M 14.53125 20.308594 C 13.148438 21.65625 11.585938 22.835938 9.953125 23.875 C 9.671875 24.054688 9.222656 24.058594 8.9375 23.875 C 7.324219 22.835938 5.785156 21.65625 4.421875 20.308594 C 4.210938 20.101562 4.230469 19.648438 4.421875 19.421875 C 5.785156 17.796875 7.289062 16.269531 8.9375 14.925781 C 9.199219 14.714844 9.691406 14.71875 9.953125 14.925781 C 11.621094 16.269531 13.148438 17.796875 14.53125 19.421875 C 14.722656 19.648438 14.742188 20.101562 14.53125 20.308594 Z M 18.585938 9.4375 C 16.8125 11.226562 18.585938 9.445312 16.804688 11.234375 C 16.289062 11.75 16.0625 11.757812 15.539062 11.257812 C 10.234375 6.222656 15.515625 11.234375 10.226562 6.203125 C 9.914062 5.902344 9.195312 5.9375 8.910156 6.203125 C 3.4375 11.234375 8.914062 6.195312 3.421875 11.234375 C 2.875 11.742188 2.695312 11.695312 2.203125 11.210938 C 0.398438 9.4375 2.1875 11.210938 0.402344 9.4375 C -0.117188 8.925781 -0.109375 8.828125 0.402344 8.339844 C 8.808594 0.261719 0.398438 8.320312 8.796875 0.257812 C 9.160156 -0.0859375 9.953125 -0.0859375 10.3125 0.257812 C 18.609375 8.328125 10.296875 0.257812 18.585938 8.339844 C 19.101562 8.839844 19.09375 8.929688 18.585938 9.4375 Z M 18.570312 16.789062 C 16.796875 18.578125 18.570312 16.804688 16.789062 18.589844 C 16.273438 19.105469 16.046875 19.113281 15.523438 18.617188 C 10.21875 13.578125 15.5 18.585938 10.210938 13.554688 C 9.894531 13.257812 9.179688 13.292969 8.890625 13.554688 C 3.417969 18.589844 8.898438 13.550781 3.40625 18.589844 C 2.859375 19.09375 2.679688 19.050781 2.183594 18.566406 C 0.382812 16.792969 2.171875 18.5625 0.382812 16.789062 C -0.132812 16.28125 -0.125 16.1875 0.382812 15.695312 C 4.5 11.738281 4.585938 11.648438 4.585938 11.648438 C 4.59375 11.632812 4.796875 11.4375 8.78125 7.617188 C 9.140625 7.269531 9.9375 7.265625 10.292969 7.617188 C 18.59375 15.6875 10.28125 7.613281 18.570312 15.695312 C 19.085938 16.195312 19.078125 16.28125 18.570312 16.789062 Z M 18.570312 16.789062 "/>
</clipPath>
<linearGradient id="linear0" gradientUnits="userSpaceOnUse" x1="0" y1="0" x2="0" y2="1" gradientTransform="matrix(19,0,0,24,0,0)">
<stop offset="0" style="stop-color:rgb(6.27451%,88.235294%,94.509804%);stop-opacity:1;"/>
<stop offset="1" style="stop-color:rgb(2.352941%,43.921569%,88.235294%);stop-opacity:1;"/>
</linearGradient>
</defs>
<g id="surface1">
<g clip-path="url(#clip1)" clip-rule="nonzero">
<rect x="0" y="0" width="19" height="24" style="fill:url(#linear0);stroke:none;"/>
</g>
</g>
</svg>
