<?xml version="1.0" encoding="UTF-8"?>
<svg xmlns="http://www.w3.org/2000/svg" xmlns:xlink="http://www.w3.org/1999/xlink" width="38px" height="48px" viewBox="0 0 38 48" version="1.1">
<defs>
<clipPath id="clip1">
  <path d="M 29.0625 40.617188 C 26.292969 43.3125 23.171875 45.667969 19.902344 47.75 C 19.339844 48.113281 18.445312 48.117188 17.878906 47.75 C 14.648438 45.667969 11.570312 43.308594 8.84375 40.617188 C 8.417969 40.199219 8.460938 39.300781 8.84375 38.84375 C 11.570312 35.59375 14.578125 32.539062 17.878906 29.851562 C 18.398438 29.429688 19.382812 29.433594 19.902344 29.851562 C 23.242188 32.539062 26.292969 35.589844 29.0625 38.84375 C 29.445312 39.296875 29.488281 40.203125 29.0625 40.617188 Z M 37.175781 18.875 C 33.628906 22.449219 37.175781 18.894531 33.605469 22.472656 C 32.582031 23.503906 32.128906 23.515625 31.078125 22.519531 C 20.46875 12.445312 31.035156 22.464844 20.453125 12.40625 C 19.824219 11.804688 18.390625 11.878906 17.820312 12.40625 C 6.871094 22.472656 17.828125 12.394531 6.84375 22.472656 C 5.746094 23.480469 5.390625 23.394531 4.402344 22.421875 C 0.796875 18.878906 4.378906 22.417969 0.804688 18.875 C -0.230469 17.851562 -0.21875 17.660156 0.804688 16.679688 C 17.617188 0.523438 0.792969 16.640625 17.597656 0.519531 C 18.320312 -0.171875 19.902344 -0.175781 20.621094 0.519531 C 37.222656 16.660156 20.589844 0.519531 37.175781 16.679688 C 38.203125 17.679688 38.1875 17.855469 37.175781 18.875 Z M 37.140625 33.582031 C 33.59375 37.15625 37.140625 33.605469 33.574219 37.179688 C 32.546875 38.210938 32.09375 38.226562 31.042969 37.230469 C 20.433594 27.152344 31 37.175781 20.417969 27.113281 C 19.789062 26.515625 18.359375 26.585938 17.785156 27.113281 C 6.835938 37.179688 17.796875 27.101562 6.8125 37.179688 C 5.714844 38.1875 5.355469 38.101562 4.367188 37.132812 C 0.765625 33.585938 4.34375 37.125 0.769531 33.582031 C -0.261719 32.558594 -0.25 32.371094 0.769531 31.386719 C 9.003906 23.476562 9.171875 23.300781 9.171875 23.292969 C 9.1875 23.269531 9.597656 22.875 17.566406 15.230469 C 18.285156 14.539062 19.871094 14.53125 20.585938 15.230469 C 37.1875 31.371094 20.558594 15.226562 37.140625 31.386719 C 38.167969 32.386719 38.152344 32.5625 37.140625 33.582031 Z M 37.140625 33.582031 "/>
</clipPath>
<linearGradient id="linear0" gradientUnits="userSpaceOnUse" x1="0" y1="0" x2="0" y2="1" gradientTransform="matrix(38,0,0,48,0,0)">
<stop offset="0" style="stop-color:rgb(6.27451%,88.235294%,94.509804%);stop-opacity:1;"/>
<stop offset="1" style="stop-color:rgb(2.352941%,43.921569%,88.235294%);stop-opacity:1;"/>
</linearGradient>
</defs>
<g id="surface1">
<g clip-path="url(#clip1)" clip-rule="nonzero">
<rect x="0" y="0" width="38" height="48" style="fill:url(#linear0);stroke:none;"/>
</g>
</g>
</svg>
