<svg xmlns="http://www.w3.org/2000/svg" width="364" height="468" viewBox="0 0 364 468">
  <defs>
    <linearGradient id="redToBlue" x1="0%" y1="0%" x2="0%" y2="100%">
      <stop offset="0%" style="stop-color:#10e1f1;stop-opacity:1" />
      <stop offset="100%" style="stop-color:#0670e1;stop-opacity:1" />
    </linearGradient>
    <clipPath id="shapesClip">
      <path d="M278.37 396.03c-26.51 26.26 -56.42 49.23 -87.71 69.55c-5.42 3.52 -13.99 3.55 -19.39 0c-30.94 -20.31 -60.43 -43.33 -86.56 -69.55 c-4.07 -4.09 -3.67 -12.86 0.00 -17.31c26.12 -31.68 54.92 -61.48 86.56 -87.66c4.98 -4.12 14.39 -4.09 19.39 0.00 c31.98 26.18 61.20 55.94 87.71 87.66C282.07 383.15 282.47 391.97 278.37 396.03z"/>
      <path d="M356.1 184.03c-33.96 34.86 -0.01 0.20 -34.18 35.08c-9.83 10.04 -14.17 10.18 -24.22 0.47 c-101.64 -98.25 -0.42 -0.53 -101.77 -98.62c-6.05 -5.85 -19.75 -5.14 -25.24 0c-104.89 98.13 0.09 -0.12 -105.12 98.15 c-10.51 9.82 -13.94 8.99 -23.40 -0.49c-34.53 -34.55 -0.23 -0.05 -34.46 -34.59c-9.9 -9.97 -9.79 -11.83 0.00 -21.41 C168.75 5.09 7.61 162.26 168.57 5.07c6.91 -6.74 22.09 -6.78 28.95 0c159.03 157.38 -0.28 -0.01 158.58 157.55 C365.93 172.37 365.80 174.08 356.10 184.03z"/>
      <path d="M355.77 327.44c-33.96 34.85 0.00 0.20 -34.17 35.08c-9.84 10.03 -14.17 10.18 -24.23 0.46c-101.63 -98.25 -0.41 -0.53 -101.77 -98.62 c-6.04 -5.85 -19.74 -5.13 -25.23 0c-104.89 98.13 0.09 -0.12 -105.12 98.16c-10.51 9.81 -13.94 8.98 -23.41 -0.49 c-34.52 -34.56 -0.22 -0.06 -34.46 -34.59c-9.89 -9.98 -9.79 -11.84 0.00 -21.42c78.86 -77.13 80.47 -78.82 80.47 -78.90 c0.17 -0.26 4.07 -4.10 80.40 -78.64c6.9 -6.74 22.09 -6.79 28.94 0c159.03 157.38 -0.27 -0.01 158.58 157.54 C365.61 315.77 365.47 317.48 355.77 327.44z"/>
    </clipPath>
  </defs>
  <rect width="100%" height="100%" fill="url(#redToBlue)" clip-path="url(#shapesClip)" />
</svg>
